<?xml version="1.0" encoding="utf-8"?>
<svg width="512" height="512" viewBox="0 0 512 512" fill="none" xmlns="http://www.w3.org/2000/svg">
  <g>
    <g transform="translate(41 41)">
      <g transform="translate(57.696 27.215)">
        <g>
          <g>
            <path d="M133.899 55.7857C133.899 92.3114 103.923 121.924 66.9494 121.924C29.9672 121.924 0 92.3114 0 55.7857C0 19.2601 29.9672 0 66.9494 0C103.923 0 133.899 19.2601 133.899 55.7857C133.899 55.7857 133.899 55.7857 133.899 55.7857Z" fill="#E34361" fill-rule="evenodd" transform="translate(7.62 243.087)" />
            <path d="M83.7074 0C92.4628 9.1114 97.7211 21.3588 97.7211 36.6745C97.7211 73.3067 67.907 103.006 31.1329 103.006C19.876 103.006 9.29137 100.2 0 95.2927C12.0141 107.04 28.4612 114.304 46.627 114.304C83.4011 114.304 113.215 84.6048 113.215 47.9727C113.215 25.0119 101.499 8.86562 83.7074 0C83.7074 0 83.7074 0 83.7074 0Z" fill="#BC395B" fill-rule="evenodd" transform="translate(27.215 251.796)" />
            <path d="M74.5698 16.9638C47.9643 16.9638 16.8979 29.4068 16.8979 64.4798C16.8979 96.3974 42.7683 122.378 74.5698 122.378C106.371 122.378 132.242 96.3974 132.242 64.4798C132.242 29.4068 101.175 16.9638 74.5698 16.9638C74.5698 16.9638 74.5698 16.9638 74.5698 16.9638ZM74.5696 139.342C33.449 139.342 0 105.762 0 64.4799C0 25.9124 29.9681 0 74.5696 0C119.171 0 149.139 25.9124 149.139 64.4799C149.139 105.762 115.69 139.342 74.5696 139.342C74.5696 139.342 74.5696 139.342 74.5696 139.342Z" fill="#454849" fill-rule="evenodd" transform="translate(0 235.466)" />
            <path d="M28.3255 23.9494C10.526 23.9494 2.66205 14.7025 1.82492 13.6414C-1.07543 10.0033 -0.449703 4.70612 3.21167 1.81754C6.8646 -1.07108 12.1918 -0.447876 15.0921 3.19867C15.109 3.19867 18.8803 7.10626 28.3255 7.10626C37.8299 7.10626 41.5843 3.14813 41.7449 2.97971C44.8228 -0.355225 50.0993 -0.801605 53.5662 2.13754C57.0331 5.07666 57.6504 10.0875 54.8261 13.6414C53.989 14.7025 46.125 23.9494 28.3255 23.9494C28.3255 23.9494 28.3255 23.9494 28.3255 23.9494Z" fill="#454849" fill-rule="evenodd" transform="translate(45.722 269.214)" />
            <path d="M29.2216 22.8607C11.2537 22.8607 1.64461 10.3759 1.22496 9.8306C-0.856163 7.06262 -0.222406 3.18747 2.64663 1.17963C5.51566 -0.811646 9.50661 -0.225006 11.5963 2.50992C11.9303 2.93958 18.5162 11.0782 30.3092 10.442C33.8634 10.0702 36.8523 12.9456 37.0065 16.3663C37.1606 19.7788 34.4115 22.679 30.8659 22.8194C30.3092 22.8442 29.7611 22.8607 29.2216 22.8607C29.2216 22.8607 29.2216 22.8607 29.2216 22.8607Z" fill="#FEFEFE" fill-rule="evenodd" transform="translate(31.57 283.366)" />
            <path d="M133.899 55.7857C133.899 92.3114 103.923 121.924 66.9494 121.924C29.9673 121.924 0 92.3114 0 55.7857C0 19.2601 29.9673 0 66.9494 0C103.923 0 133.899 19.2601 133.899 55.7857C133.899 55.7857 133.899 55.7857 133.899 55.7857Z" fill="#E34361" fill-rule="evenodd" transform="translate(172 241.671)" />
            <path d="M83.7074 0C92.4628 9.1114 97.7211 21.3588 97.7211 36.6745C97.7211 73.3067 67.907 103.006 31.1329 103.006C19.8761 103.006 9.29137 100.2 0 95.2927C12.0141 107.04 28.4612 114.304 46.627 114.304C83.4011 114.304 113.215 84.6048 113.215 47.9727C113.215 25.0119 101.499 8.86562 83.7074 0C83.7074 0 83.7074 0 83.7074 0Z" fill="#BC395B" fill-rule="evenodd" transform="translate(192.684 251.468)" />
            <path d="M74.5698 16.9638C47.9643 16.9638 16.8979 29.4068 16.8979 64.4798C16.8979 96.3974 42.7683 122.378 74.5698 122.378C106.371 122.378 132.242 96.3974 132.242 64.4798C132.242 29.4068 101.175 16.9638 74.5698 16.9638C74.5698 16.9638 74.5698 16.9638 74.5698 16.9638ZM74.5696 139.342C33.449 139.342 0 105.762 0 64.4799C0 25.9124 29.9681 0 74.5696 0C119.171 0 149.139 25.9124 149.139 64.4799C149.139 105.762 115.69 139.342 74.5696 139.342C74.5696 139.342 74.5696 139.342 74.5696 139.342Z" fill="#454849" fill-rule="evenodd" transform="translate(165.468 235.139)" />
            <path d="M28.3286 23.9494C10.5271 23.9494 2.66234 14.7025 1.82513 13.6414C-1.07555 10.0033 -0.449738 4.70612 3.21204 1.81754C6.87383 -1.07108 12.1931 -0.447876 15.0938 3.19867C15.1107 3.19867 18.8824 7.10626 28.3286 7.10626C37.834 7.10626 41.5888 3.14813 41.741 2.97971C44.8193 -0.355225 50.1048 -0.801605 53.5721 2.13754C57.0309 5.07666 57.6482 10.0875 54.8321 13.6414C53.9949 14.6941 46.1301 23.9494 28.3286 23.9494C28.3286 23.9494 28.3286 23.9494 28.3286 23.9494Z" fill="#454849" fill-rule="evenodd" transform="translate(211.19 267.798)" />
            <path d="M29.2216 22.8607C11.2451 22.8607 1.63605 10.3759 1.22496 9.8306C-0.856171 7.06262 -0.222397 3.18747 2.64662 1.17963C5.51567 -0.811646 9.50662 -0.225006 11.5877 2.50995C11.8961 2.89828 18.3107 10.8882 30.3092 10.442C33.9576 10.0702 36.8523 12.9456 37.0065 16.3663C37.1606 19.7788 34.4115 22.679 30.8659 22.8194C30.3092 22.8442 29.7611 22.8607 29.2216 22.8607C29.2216 22.8607 29.2216 22.8607 29.2216 22.8607Z" fill="#FEFEFE" fill-rule="evenodd" transform="translate(194.861 281.949)" />
            <path d="M7.69054 173.089C7.69054 173.089 7.67516 173.089 7.67516 173.089C3.42999 173.08 -0.0076828 169.262 1.52588e-05 164.569C0.0461578 140.447 11.5896 125.219 22.7563 110.501C39.1064 88.9378 56.0178 66.6268 45.751 10.1946C44.9127 5.58615 47.6121 1.10525 51.7727 0.178459C55.9332 -0.782341 59.9938 2.23611 60.8321 6.83604C72.5602 71.2947 51.4804 99.0899 34.5459 121.426C23.856 135.515 15.4118 146.654 15.3811 164.603C15.3734 169.296 11.928 173.089 7.69054 173.089C7.69054 173.089 7.69054 173.089 7.69054 173.089Z" fill="#454849" fill-rule="evenodd" transform="translate(66.152 110.911)" />
            <path d="M123.664 139.342C120.51 139.342 117.655 137.379 116.897 134.46C116.555 133.143 81.7308 2.65347 8.0575 13.297C4.30491 13.8732 0.691566 11.4925 0.0858612 8.0354C-0.512886 4.57831 2.08398 1.33649 5.87835 0.791962C92.2436 -11.6118 128.927 125.703 130.445 131.56C131.329 134.96 129.011 138.367 125.272 139.171C124.736 139.285 124.193 139.342 123.664 139.342C123.664 139.342 123.664 139.342 123.664 139.342Z" fill="#454849" fill-rule="evenodd" transform="translate(118.405 141.392)" />
            <path d="M66.5773 0C-46.3255 45.3814 18.5481 112.127 18.5481 112.127C18.5481 112.127 113.152 109.457 66.5773 0C66.5773 0 66.5773 0 66.5773 0Z" fill="#3BB777" fill-rule="evenodd" transform="translate(101.241 0)" />
            <path d="M47.0726 0C47.0726 0 0 113.215 0 113.215C0 113.215 93.1538 110.707 47.0726 0C47.0726 0 47.0726 0 47.0726 0Z" fill="#229857" fill-rule="evenodd" transform="translate(116.481 9.797)" />
            <path d="M31.4287 113.74C40.209 112.471 60.448 107.775 70.8577 91.3515C81.1513 75.4326 80.842 52.0542 69.9579 21.7567C40.6334 35.5287 23.6992 51.8195 19.5698 70.2805C15.3172 89.3681 26.1312 106.673 31.4287 113.74C31.4287 113.74 31.4287 113.74 31.4287 113.74ZM84.5237 104.118C64.7942 131.228 29.1024 132.755 27.544 132.805C24.8958 132.894 22.3457 131.842 20.5402 129.921C19.4443 128.755 -6.16916 101.037 1.39417 66.6044C7.23105 39.9811 30.8748 17.8215 71.663 0.729249C76.4169 -1.2636 81.8375 0.968511 83.7791 5.7034C100.354 46.3699 101.218 78.6049 86.3152 101.5C85.7407 102.399 85.1412 103.272 84.5237 104.118C84.5237 104.118 84.5237 104.118 84.5237 104.118Z" fill="#454849" fill-rule="evenodd" transform="translate(92.532 0)" />
          </g>
        </g>
      </g>
    </g>
  </g>
</svg>