<?xml version="1.0" encoding="utf-8"?>
<svg width="512" height="512" viewBox="0 0 512 512" fill="none" xmlns="http://www.w3.org/2000/svg">
  <g>
    <g transform="translate(90 56)">
      <g transform="translate(44.546 21.012)">
        <g>
          <g>
            <path d="M103.382 43.0718C103.382 71.273 80.2382 94.1367 51.6911 94.1367C23.1375 94.1367 0 71.273 0 43.0718C0 14.8706 23.1375 0 51.6911 0C80.2382 0 103.382 14.8706 103.382 43.0718C103.382 43.0718 103.382 43.0718 103.382 43.0718Z" fill="#E34361" fill-rule="evenodd" transform="translate(5.884 187.686)" />
            <path d="M64.6299 0C71.3898 7.03485 75.4497 16.491 75.4497 28.3161C75.4497 56.5995 52.4305 79.5299 24.0375 79.5299C15.3462 79.5299 7.1738 77.3638 0 73.5748C9.27601 82.6449 21.9747 88.2532 36.0004 88.2532C64.3934 88.2532 87.4127 65.3228 87.4127 37.0394C87.4127 19.3115 78.3666 6.84508 64.6299 0C64.6299 0 64.6299 0 64.6299 0Z" fill="#BC395B" fill-rule="evenodd" transform="translate(21.012 194.411)" />
            <path d="M57.5752 13.0977C37.0334 13.0977 13.0472 22.7049 13.0472 49.7844C13.0472 74.4278 33.0215 94.487 57.5752 94.487C82.129 94.487 102.103 74.4278 102.103 49.7844C102.103 22.7049 78.1171 13.0977 57.5752 13.0977C57.5752 13.0977 57.5752 13.0977 57.5752 13.0977ZM57.5747 107.585C25.8258 107.585 0 81.6578 0 49.7845C0 20.0068 23.1382 0 57.5747 0C92.0112 0 115.149 20.0068 115.149 49.7845C115.149 81.6578 89.3236 107.585 57.5747 107.585C57.5747 107.585 57.5747 107.585 57.5747 107.585Z" fill="#454849" fill-rule="evenodd" transform="translate(0 181.802)" />
            <path d="M21.8699 18.4911C8.12703 18.4911 2.05535 11.3517 1.40901 10.5324C-0.830334 7.72345 -0.347214 3.63356 2.47971 1.40331C5.30011 -0.826965 9.41318 -0.345795 11.6525 2.46967C11.6656 2.46967 14.5774 5.48669 21.8699 5.48669C29.2082 5.48669 32.1069 2.43065 32.231 2.3006C34.6074 -0.274277 38.6813 -0.618896 41.3581 1.65038C44.0348 3.91965 44.5114 7.78848 42.3309 10.5324C41.6845 11.3517 35.6128 18.4911 21.8699 18.4911C21.8699 18.4911 21.8699 18.4911 21.8699 18.4911Z" fill="#454849" fill-rule="evenodd" transform="translate(35.302 207.858)" />
            <path d="M22.5618 17.6506C8.68892 17.6506 1.26979 8.01118 0.94578 7.59013C-0.661037 5.453 -0.171719 2.46101 2.04344 0.910797C4.2586 -0.626663 7.33998 -0.173721 8.95341 1.9379C9.2113 2.26964 14.2962 8.55344 23.4015 8.06221C26.1457 7.77515 28.4534 9.99521 28.5724 12.6363C28.6915 15.2711 26.5689 17.5103 23.8313 17.6187C23.4015 17.6379 22.9783 17.6506 22.5618 17.6506C22.5618 17.6506 22.5618 17.6506 22.5618 17.6506Z" fill="#FEFEFE" fill-rule="evenodd" transform="translate(24.375 218.785)" />
            <path d="M103.382 43.0717C103.382 71.2729 80.2382 94.1367 51.6911 94.1367C23.1375 94.1367 0 71.2729 0 43.0717C0 14.8706 23.1375 0 51.6911 0C80.2382 0 103.382 14.8706 103.382 43.0717C103.382 43.0717 103.382 43.0717 103.382 43.0717Z" fill="#E34361" fill-rule="evenodd" transform="translate(132.8 186.592)" />
            <path d="M64.6299 0C71.3899 7.03485 75.4498 16.491 75.4498 28.3161C75.4498 56.5995 52.4305 79.5299 24.0375 79.5299C15.3462 79.5299 7.1738 77.3638 0 73.5748C9.27603 82.6449 21.9747 88.2531 36.0004 88.2531C64.3934 88.2531 87.4127 65.3228 87.4127 37.0394C87.4127 19.3115 78.3666 6.84508 64.6299 0C64.6299 0 64.6299 0 64.6299 0Z" fill="#BC395B" fill-rule="evenodd" transform="translate(148.77 194.157)" />
            <path d="M57.5752 13.0977C37.0334 13.0977 13.0472 22.7049 13.0472 49.7845C13.0472 74.4279 33.0215 94.4871 57.5752 94.4871C82.129 94.4871 102.103 74.4279 102.103 49.7845C102.103 22.7049 78.1171 13.0977 57.5752 13.0977C57.5752 13.0977 57.5752 13.0977 57.5752 13.0977ZM57.5747 107.585C25.8258 107.585 0 81.6578 0 49.7845C0 20.0068 23.1382 0 57.5747 0C92.0112 0 115.149 20.0068 115.149 49.7845C115.149 81.6578 89.3236 107.585 57.5747 107.585C57.5747 107.585 57.5747 107.585 57.5747 107.585Z" fill="#454849" fill-rule="evenodd" transform="translate(127.757 181.55)" />
            <path d="M21.8723 18.4911C8.12793 18.4911 2.05557 11.3517 1.40916 10.5324C-0.830429 7.72345 -0.347244 3.63356 2.47998 1.40331C5.30724 -0.826965 9.41423 -0.345795 11.6538 2.46967C11.6669 2.46967 14.579 5.48669 21.8723 5.48669C29.2114 5.48669 32.1104 2.43065 32.228 2.3006C34.6047 -0.274277 38.6856 -0.618896 41.3626 1.65038C44.0331 3.91965 44.5098 7.78848 42.3355 10.5324C41.6891 11.3452 35.6167 18.4911 21.8723 18.4911C21.8723 18.4911 21.8723 18.4911 21.8723 18.4911Z" fill="#454849" fill-rule="evenodd" transform="translate(163.058 206.765)" />
            <path d="M22.5618 17.6506C8.68231 17.6506 1.26318 8.01118 0.945786 7.59013C-0.661041 5.453 -0.171722 2.46101 2.04344 0.910797C4.25861 -0.626663 7.34 -0.173721 8.94681 1.9379C9.18486 2.23773 14.1376 8.40671 23.4016 8.06221C26.2184 7.77515 28.4534 9.99521 28.5724 12.6363C28.6915 15.2711 26.5689 17.5103 23.8314 17.6187C23.4016 17.6379 22.9784 17.6506 22.5618 17.6506C22.5618 17.6506 22.5618 17.6506 22.5618 17.6506Z" fill="#FEFEFE" fill-rule="evenodd" transform="translate(150.45 217.691)" />
            <path d="M5.93781 133.641C5.93781 133.641 5.92594 133.641 5.92594 133.641C2.64827 133.634 -0.00592804 130.686 1.14441e-05 127.063C0.0356369 108.438 8.94828 96.6804 17.57 85.3167C30.1938 68.6682 43.251 51.4421 35.324 7.87118C34.6768 4.31303 36.761 0.853355 39.9733 0.137787C43.1857 -0.604042 46.3208 1.72648 46.9681 5.27806C56.0232 55.0462 39.7477 76.5066 26.6726 93.7525C18.4191 104.63 11.8994 113.23 11.8756 127.089C11.8697 130.713 9.20955 133.641 5.93781 133.641C5.93781 133.641 5.93781 133.641 5.93781 133.641Z" fill="#454849" fill-rule="evenodd" transform="translate(51.076 85.634)" />
            <path d="M95.4799 107.585C93.0448 107.585 90.8409 106.069 90.255 103.816C89.9916 102.799 63.1038 2.04873 6.22114 10.2665C3.32379 10.7114 0.533951 8.87328 0.0662918 6.20408C-0.395996 3.53488 1.60903 1.03189 4.53863 0.611465C71.2207 -8.96539 99.5437 97.0547 100.716 101.577C101.398 104.202 99.6082 106.832 96.7216 107.453C96.3077 107.541 95.8884 107.585 95.4799 107.585C95.4799 107.585 95.4799 107.585 95.4799 107.585Z" fill="#454849" fill-rule="evenodd" transform="translate(91.421 109.168)" />
            <path d="M51.4038 0C-35.7676 35.0387 14.3208 86.5721 14.3208 86.5721C14.3208 86.5721 87.3639 84.5111 51.4038 0C51.4038 0 51.4038 0 51.4038 0Z" fill="#3BB777" fill-rule="evenodd" transform="translate(78.167 0)" />
            <path d="M36.3444 0C36.3444 0 0 87.4127 0 87.4127C0 87.4127 71.9233 85.4759 36.3444 0C36.3444 0 36.3444 0 36.3444 0Z" fill="#229857" fill-rule="evenodd" transform="translate(89.934 7.565)" />
            <path d="M24.2663 87.8178C31.0456 86.8384 46.6719 83.2122 54.7092 70.5319C62.6568 58.241 62.418 40.1908 54.0145 16.7983C31.3732 27.4316 18.2985 40.0095 15.1102 54.2631C11.8268 69.0005 20.1762 82.3617 24.2663 87.8178C24.2663 87.8178 24.2663 87.8178 24.2663 87.8178ZM65.2602 80.3889C50.0272 101.32 22.4697 102.499 21.2666 102.538C19.2219 102.606 17.253 101.794 15.8589 100.311C15.0128 99.4109 -4.76317 78.0101 1.07642 51.4248C5.58305 30.8691 23.8383 13.7599 55.3305 0.563048C59.001 -0.975617 63.1862 0.747781 64.6853 4.40355C77.4826 35.8019 78.1495 60.6903 66.6434 78.3676C66.1998 79.0619 65.737 79.7354 65.2602 80.3889C65.2602 80.3889 65.2602 80.3889 65.2602 80.3889Z" fill="#454849" fill-rule="evenodd" transform="translate(71.443 0)" />
          </g>
        </g>
      </g>
    </g>
    <path d="M14.4 35.1Q7.62 35.1 4.41 32.22Q1.2 29.34 1.2 24Q1.2 18.63 4.41 15.51Q7.62 12.39 14.4 12.39Q23.88 12.39 27.09 18.9Q24.39 19.83 20.76 21.69Q19.89 20.01 18.015 19.2Q16.14 18.39 14.19 18.39Q11.31 18.39 9.9 19.905Q8.49 21.42 8.49 23.64Q8.49 26.04 10.005 27.555Q11.52 29.07 14.64 29.07Q17.13 29.07 18.6 28.245Q20.07 27.42 20.76 25.62Q23.22 26.94 27.06 28.59Q25.56 32.22 22.05 33.66Q18.54 35.1 14.4 35.1ZM41.19 34.8Q41.37 30.39 41.37 26.67Q41.37 25.35 40.725 24.57Q40.08 23.79 39.09 23.79Q38.04 23.79 37.305 24.81Q36.57 25.83 36.57 27.6L36.54 27.54Q36.54 32.43 36.66 34.8L29.49 34.8Q29.73 30.48 29.73 23.1Q29.73 15.72 29.49 11.4L36.63 11.4L36.66 20.64L36.63 22.23Q37.35 20.13 38.775 19.125Q40.2 18.12 42 18.12Q43.8 18.12 45.12 18.915Q46.44 19.71 47.115 21.06Q47.79 22.41 47.79 24.09L47.79 28.41Q47.79 32.4 47.94 34.8L41.19 34.8ZM66.21 27.3L56.43 27.3Q56.67 28.62 57.615 29.445Q58.56 30.27 60.3 30.27Q61.56 30.27 62.67 29.775Q63.78 29.28 64.44 28.38Q66.45 29.37 69.78 30.51Q68.85 32.61 66.405 33.855Q63.96 35.1 60.03 35.1Q54.93 35.1 52.485 32.745Q50.04 30.39 50.04 26.55Q50.04 22.8 52.47 20.46Q54.9 18.12 60.03 18.12Q63.09 18.12 65.34 19.14Q67.59 20.16 68.79 21.975Q69.99 23.79 69.99 26.13Q69.99 26.91 69.93 27.3L66.21 27.3ZM60.45 22.65Q58.95 22.65 57.99 23.22Q57.03 23.79 56.64 24.78L63.72 24.78Q63.36 23.82 62.55 23.235Q61.74 22.65 60.45 22.65ZM79.05 22.86Q80.31 18.33 85.32 18.33Q86.19 18.33 87 18.45L86.04 25.17Q83.88 24.36 82.5 24.36Q80.79 24.36 79.98 25.38Q79.17 26.4 79.17 28.11L79.17 28.08L79.14 30.06Q79.14 32.19 79.26 34.8L72.09 34.8Q72.33 30.48 72.33 26.64Q72.33 22.8 72.09 18.42Q74.07 18.51 75.12 18.51Q76.23 18.51 78.15 18.42L79.05 22.86ZM96.36 22.86Q97.62 18.33 102.63 18.33Q103.5 18.33 104.31 18.45L103.35 25.17Q101.19 24.36 99.81 24.36Q98.1 24.36 97.29 25.38Q96.48 26.4 96.48 28.11L96.48 28.08L96.45 30.06Q96.45 32.19 96.57 34.8L89.4 34.8Q89.64 30.48 89.64 26.64Q89.64 22.8 89.4 18.42Q91.38 18.51 92.43 18.51Q93.54 18.51 95.46 18.42L96.36 22.86ZM123.99 18.42L123.3 20.16Q120.45 27.75 117.33 34.8Q115.71 38.4 112.65 40.575Q109.59 42.75 104.97 42.66Q104.4 40.17 104.025 38.775Q103.65 37.38 103.05 35.97Q104.7 36.36 106.14 36.36Q108.48 36.36 109.86 35.37Q108.78 32.16 107.31 28.47Q105.84 24.78 103.05 18.42L110.16 18.42Q110.52 19.92 111.15 21.9Q111.78 23.88 112.41 25.71Q112.59 26.28 112.995 27.435Q113.4 28.59 113.64 29.37L114.42 27Q116.67 20.49 117.09 18.42L123.99 18.42ZM134.88 35.1Q132.36 35.1 129.765 34.395Q127.17 33.69 124.89 32.25L128.04 27.96Q129.42 28.95 131.37 29.505Q133.32 30.06 134.73 30.06Q136.08 30.06 136.815 29.685Q137.55 29.31 137.55 28.71Q137.55 28.23 137.19 27.96Q136.83 27.69 136.2 27.69Q135.81 27.69 135.315 27.72Q134.82 27.75 134.52 27.78Q132.96 27.96 131.31 27.96Q128.64 27.96 126.975 26.955Q125.31 25.95 125.31 23.67Q125.31 21.03 127.8 19.575Q130.29 18.12 135.12 18.12Q137.49 18.12 139.905 18.795Q142.32 19.47 144.18 20.82L140.73 24.3Q139.02 23.4 137.535 23.025Q136.05 22.65 134.55 22.65Q133.5 22.65 132.75 23.07Q132 23.49 132 24.03Q132 24.45 132.315 24.69Q132.63 24.93 133.14 24.93Q133.65 24.93 134.55 24.84Q136.74 24.69 137.82 24.69Q140.94 24.69 142.65 25.74Q144.36 26.79 144.36 28.95Q144.36 32.19 141.84 33.645Q139.32 35.1 134.88 35.1Z" fill="#FFFFFF" transform="translate(183 417)" />
  </g>
</svg>